<svg width="115" height="115" viewBox="0 0 115 115" fill="none" xmlns="http://www.w3.org/2000/svg">
<path d="M95.8334 81.4584C98.5807 81.4584 100.897 82.4167 102.781 84.3334C104.666 86.25 105.592 88.4861 105.561 91.0417L67.0834 105.417L33.5418 95.8334V52.7083H42.8855L77.7209 65.5979C80.2126 66.5882 81.4584 68.3771 81.4584 70.9646C81.4584 72.466 80.9154 73.7757 79.8293 74.8938C78.7431 76.0118 77.3695 76.6028 75.7084 76.6667H62.2918L53.9063 73.4563L52.3251 77.9604L62.2918 81.4584H95.8334ZM76.6668 15.4771C80.0529 11.5479 84.3654 9.58334 89.6043 9.58334C93.9487 9.58334 97.6223 11.1806 100.625 14.375C103.628 17.5695 105.225 21.2431 105.417 25.3958C105.417 28.6861 103.82 32.6153 100.625 37.1833C97.4307 41.7514 94.2841 45.5688 91.1855 48.6354C88.0869 51.7021 83.2473 56.2542 76.6668 62.2917C70.0223 56.2542 65.1348 51.7021 62.0043 48.6354C58.8737 45.5688 55.7272 41.7514 52.5647 37.1833C49.4022 32.6153 47.8529 28.6861 47.9168 25.3958C47.9168 21.0514 49.4661 17.3778 52.5647 14.375C55.6633 11.3722 59.4008 9.77501 63.7772 9.58334C68.8883 9.58334 73.1848 11.5479 76.6668 15.4771ZM4.71509 52.7083H23.9584V105.417H4.71509V52.7083Z" fill="white"/>
</svg>
